<svg xmlns="http://www.w3.org/2000/svg" width="1600" height="720" viewBox="0 0 1600 720">
  <defs>
    <linearGradient id="bg" x1="0" y1="0" x2="1" y2="1"><stop offset="0" stop-color="#07192b"/><stop offset="1" stop-color="#123a5a"/></linearGradient>
    <filter id="shadow" x="-20%" y="-20%" width="140%" height="140%"><feDropShadow dx="0" dy="12" stdDeviation="14" flood-opacity="0.35"/></filter>
    <marker id="arrow" markerWidth="10" markerHeight="10" refX="8" refY="3" orient="auto"><path d="M0,0 L0,6 L9,3 z" fill="#66d9ef"/></marker>
  </defs>
  <rect width="1600" height="720" fill="url(#bg)"/>
  <text x="800" y="70" text-anchor="middle" font-family="Arial, sans-serif" font-size="40" font-weight="700" fill="#ffffff">LAB-001 — Safe Junos Configuration Workflow</text>
  <text x="800" y="112" text-anchor="middle" font-family="Arial, sans-serif" font-size="22" fill="#b7d8ee">In-band management, automatic rollback, verification and recovery</text>

  <line x1="420" y1="360" x2="650" y2="360" stroke="#66d9ef" stroke-width="8" marker-end="url(#arrow)"/>
  <line x1="950" y1="360" x2="1180" y2="360" stroke="#66d9ef" stroke-width="8" marker-end="url(#arrow)"/>
  <text x="535" y="320" text-anchor="middle" font-family="Arial" font-size="19" fill="#ffffff">192.168.10.0/24</text>
  <text x="1065" y="320" text-anchor="middle" font-family="Arial" font-size="19" fill="#ffffff">10.0.12.0/30</text>
  <text x="535" y="405" text-anchor="middle" font-family="Arial" font-size="17" fill="#b7d8ee">eth1 ↔ ge-0/0/0</text>
  <text x="1065" y="405" text-anchor="middle" font-family="Arial" font-size="17" fill="#b7d8ee">ge-0/0/1 ↔ ge-0/0/0</text>

  <g>
    <rect x="100" y="235" rx="28" ry="28" width="320" height="250" fill="#f5f9fc" stroke="#66d9ef" stroke-width="4"/>
    <circle cx="260" cy="295" r="34" fill="#22a06b"/>
    <path d="M244 294h32M260 278v32" stroke="#fff" stroke-width="7" stroke-linecap="round"/>
    <text x="260" y="362" text-anchor="middle" font-family="Arial" font-size="30" font-weight="700" fill="#102a43">client1</text>
    <text x="260" y="402" text-anchor="middle" font-family="Arial" font-size="19" fill="#486581">network-multitool</text>
    <text x="260" y="438" text-anchor="middle" font-family="Arial" font-size="19" fill="#102a43">192.168.10.10/24</text>
  </g>

  <g>
    <rect x="650" y="205" rx="28" ry="28" width="300" height="310" fill="#f5f9fc" stroke="#ffb347" stroke-width="5"/>
    <rect x="720" y="255" width="160" height="58" rx="12" fill="#e76f00"/>
    <circle cx="750" cy="284" r="8" fill="#fff"/><circle cx="780" cy="284" r="8" fill="#fff"/>
    <path d="M820 275h36M820 292h36" stroke="#fff" stroke-width="6"/>
    <text x="800" y="365" text-anchor="middle" font-family="Arial" font-size="34" font-weight="700" fill="#102a43">R1</text>
    <text x="800" y="405" text-anchor="middle" font-family="Arial" font-size="19" fill="#486581">vJunos-router 25.4R1.12</text>
    <text x="800" y="442" text-anchor="middle" font-family="Arial" font-size="18" fill="#102a43">lo0: 10.255.0.1/32</text>
    <text x="800" y="474" text-anchor="middle" font-family="Arial" font-size="17" fill="#a24600">Primary configuration target</text>
  </g>

  <g>
    <rect x="1180" y="235" rx="28" ry="28" width="320" height="250" fill="#f5f9fc" stroke="#9f8cff" stroke-width="4"/>
    <rect x="1260" y="267" width="160" height="58" rx="12" fill="#6655cc"/>
    <circle cx="1290" cy="296" r="8" fill="#fff"/><circle cx="1320" cy="296" r="8" fill="#fff"/>
    <path d="M1360 287h36M1360 304h36" stroke="#fff" stroke-width="6"/>
    <text x="1340" y="375" text-anchor="middle" font-family="Arial" font-size="32" font-weight="700" fill="#102a43">R2</text>
    <text x="1340" y="414" text-anchor="middle" font-family="Arial" font-size="19" fill="#486581">vJunos-router 25.4R1.12</text>
    <text x="1340" y="450" text-anchor="middle" font-family="Arial" font-size="18" fill="#102a43">lo0: 10.255.0.2/32</text>
  </g>

  <rect x="510" y="570" width="580" height="92" rx="20" fill="#092136" stroke="#66d9ef" stroke-width="2"/>
  <text x="800" y="608" text-anchor="middle" font-family="Arial" font-size="19" font-weight="700" fill="#ffffff">Out-of-band management: 172.31.1.0/24</text>
  <text x="800" y="638" text-anchor="middle" font-family="Arial" font-size="17" fill="#b7d8ee">R1 .11  •  R2 .12  •  client1 .21  •  R1 console TCP/5000</text>
</svg>
